<?xml version="1.0" encoding="UTF-8"?>
<svg height="16px" viewBox="0 0 16 16" width="16px" xmlns="http://www.w3.org/2000/svg">
    <path d="m 9.527344 13.664062 c -0.957032 0.542969 -2.132813 0.542969 -3.09375 0.003907 l -2.84375 -1.601563 c -0.957032 -0.539062 -1.550782 -1.535156 -1.554688 -2.621094 l -0.011718 -2.84375 c -0.007813 -1.082031 0.574218 -2.082031 1.53125 -2.632812 l 2.828124 -1.625 c 0.953126 -0.546875 2.128907 -0.554688 3.09375 -0.019531 l 2.925782 1.625 c 0.957031 0.53125 1.550781 1.523437 1.554687 2.605469 l 0.015625 2.84375 c 0.003906 1.078124 -0.578125 2.074218 -1.535156 2.617187 z m 6.464844 -4.277343 l -0.015626 -2.84375 c -0.007812 -1.789063 -0.992187 -3.4375 -2.582031 -4.316407 l -2.921875 -1.625 c -1.589844 -0.882812 -3.535156 -0.867187 -5.109375 0.035157 l -2.832031 1.625 c -1.574219 0.90625 -2.5390625 2.5625 -2.53125 4.351562 l 0.015625 2.84375 c 0.0078125 1.789063 0.988281 3.4375 2.570313 4.328125 l 2.84375 1.601563 c 1.582031 0.890625 3.527343 0.886719 5.109374 -0.007813 l 2.910157 -1.648437 c 1.582031 -0.898438 2.550781 -2.554688 2.542969 -4.34375 z m 0 0"/>
    <path d="m 4.152344 7.9375 h 7.695312 l -3.847656 -6.972656 z m 6.410156 -0.257812 l 0.4375 -0.742188 h -6 l 0.4375 0.742188 l 3 -5.4375 h -0.875 z m 0 0"/>
    <path d="m 14.355469 10.644531 l -3.523438 -3.519531 l -3.292969 7.679688 h 0.921876 l -3.269532 -7.632813 l -4.484375 3.886719 l 0.65625 0.753906 l 3.964844 -3.433594 l -0.789063 -0.183594 l 3.460938 8.074219 l 3.460938 -8.074219 l -0.816407 0.160157 l 3 3 z m 0 0"/>
    <path d="m 14.75 4.566406 l -4.222656 2.425782 l 0.25 -0.066407 h -5.554688 l 0.25 0.066407 l -4.222656 -2.425782 l -0.5 0.867188 l 4.339844 2.492187 h 5.820312 l 4.339844 -2.492187 z m 0 0"/>
    <path d="m 15 11 v -6 l -4.222656 2.863281 l -2.777344 6.941407 z m 0 0"/>
</svg>
