<?xml version="1.0" encoding="UTF-8"?>
<svg height="128px" viewBox="0 0 128 128" width="128px" xmlns="http://www.w3.org/2000/svg" xmlns:xlink="http://www.w3.org/1999/xlink">
    <clipPath id="a">
        <path d="m 8 4 h 112 v 120 h -112 z m 0 0"/>
    </clipPath>
    <clipPath id="b">
        <path d="m 110.664062 99.722656 l -37.371093 21.597656 c -5.785157 3.347657 -12.917969 3.355469 -18.714844 0.027344 l -36.867187 -21.164062 c -5.796876 -3.328125 -9.382813 -9.492188 -9.414063 -16.175782 l -0.179687 -39.480468 c -0.03125 -6.683594 3.5 -12.878906 9.265624 -16.257813 l 36.683594 -21.488281 c 5.769532 -3.378906 12.898438 -3.429688 18.714844 -0.132812 l 37.554688 21.273437 c 5.8125 3.292969 9.414062 9.441406 9.445312 16.121094 l 0.179688 39.480469 c 0.03125 6.675781 -3.515626 12.859374 -9.296876 16.199218 z m 0 0"/>
    </clipPath>
    <linearGradient id="c" gradientTransform="matrix(0.409876 -0.0955931 0.0955931 0.409876 54.811779 57.342407)" gradientUnits="userSpaceOnUse" x1="-37.559292" x2="23.797623" y1="-97.813683" y2="224.695496">
        <stop offset="0" stop-color="#f65751"/>
        <stop offset="1" stop-color="#f5322c"/>
    </linearGradient>
    <clipPath id="d">
        <path d="m 31 4 h 65 v 43 h -65 z m 0 0"/>
    </clipPath>
    <clipPath id="e">
        <path d="m 110.664062 99.722656 l -37.371093 21.597656 c -5.785157 3.347657 -12.917969 3.355469 -18.714844 0.027344 l -36.867187 -21.164062 c -5.796876 -3.328125 -9.382813 -9.492188 -9.414063 -16.175782 l -0.179687 -39.480468 c -0.03125 -6.683594 3.5 -12.878906 9.265624 -16.257813 l 36.683594 -21.488281 c 5.769532 -3.378906 12.898438 -3.429688 18.714844 -0.132812 l 37.554688 21.273437 c 5.8125 3.292969 9.414062 9.441406 9.445312 16.121094 l 0.179688 39.480469 c 0.03125 6.675781 -3.515626 12.859374 -9.296876 16.199218 z m 0 0"/>
    </clipPath>
    <linearGradient id="f" gradientUnits="userSpaceOnUse" x1="63.771339" x2="77.559921" y1="17.58757" y2="61.781754">
        <stop offset="0" stop-color="#f87171"/>
        <stop offset="1" stop-color="#f87171" stop-opacity="0"/>
    </linearGradient>
    <clipPath id="g">
        <path d="m 31 45 h 65 v 51 h -65 z m 0 0"/>
    </clipPath>
    <clipPath id="h">
        <path d="m 110.664062 99.722656 l -37.371093 21.597656 c -5.785157 3.347657 -12.917969 3.355469 -18.714844 0.027344 l -36.867187 -21.164062 c -5.796876 -3.328125 -9.382813 -9.492188 -9.414063 -16.175782 l -0.179687 -39.480468 c -0.03125 -6.683594 3.5 -12.878906 9.265624 -16.257813 l 36.683594 -21.488281 c 5.769532 -3.378906 12.898438 -3.429688 18.714844 -0.132812 l 37.554688 21.273437 c 5.8125 3.292969 9.414062 9.441406 9.445312 16.121094 l 0.179688 39.480469 c 0.03125 6.675781 -3.515626 12.859374 -9.296876 16.199218 z m 0 0"/>
    </clipPath>
    <clipPath id="i">
        <path d="m 8 46 h 56 v 50 h -56 z m 0 0"/>
    </clipPath>
    <clipPath id="j">
        <path d="m 110.664062 99.722656 l -37.371093 21.597656 c -5.785157 3.347657 -12.917969 3.355469 -18.714844 0.027344 l -36.867187 -21.164062 c -5.796876 -3.328125 -9.382813 -9.492188 -9.414063 -16.175782 l -0.179687 -39.480468 c -0.03125 -6.683594 3.5 -12.878906 9.265624 -16.257813 l 36.683594 -21.488281 c 5.769532 -3.378906 12.898438 -3.429688 18.714844 -0.132812 l 37.554688 21.273437 c 5.8125 3.292969 9.414062 9.441406 9.445312 16.121094 l 0.179688 39.480469 c 0.03125 6.675781 -3.515626 12.859374 -9.296876 16.199218 z m 0 0"/>
    </clipPath>
    <linearGradient id="k" gradientUnits="userSpaceOnUse" x1="20.495007" x2="71.195961" y1="83.702057" y2="66.554718">
        <stop offset="0" stop-color="#e01b76"/>
        <stop offset="1" stop-color="#e01b76" stop-opacity="0"/>
    </linearGradient>
    <clipPath id="l">
        <path d="m 63 45 h 57 v 51 h -57 z m 0 0"/>
    </clipPath>
    <clipPath id="m">
        <path d="m 110.664062 99.722656 l -37.371093 21.597656 c -5.785157 3.347657 -12.917969 3.355469 -18.714844 0.027344 l -36.867187 -21.164062 c -5.796876 -3.328125 -9.382813 -9.492188 -9.414063 -16.175782 l -0.179687 -39.480468 c -0.03125 -6.683594 3.5 -12.878906 9.265624 -16.257813 l 36.683594 -21.488281 c 5.769532 -3.378906 12.898438 -3.429688 18.714844 -0.132812 l 37.554688 21.273437 c 5.8125 3.292969 9.414062 9.441406 9.445312 16.121094 l 0.179688 39.480469 c 0.03125 6.675781 -3.515626 12.859374 -9.296876 16.199218 z m 0 0"/>
    </clipPath>
    <linearGradient id="n" gradientUnits="userSpaceOnUse" x1="111.324272" x2="20.495007" y1="82.994949" y2="82.287842">
        <stop offset="0" stop-color="#c01c6d"/>
        <stop offset="1" stop-color="#c01c6d" stop-opacity="0"/>
    </linearGradient>
    <clipPath id="o">
        <path d="m 95 36 h 25 v 53 h -25 z m 0 0"/>
    </clipPath>
    <clipPath id="p">
        <path d="m 110.664062 99.722656 l -37.371093 21.597656 c -5.785157 3.347657 -12.917969 3.355469 -18.714844 0.027344 l -36.867187 -21.164062 c -5.796876 -3.328125 -9.382813 -9.492188 -9.414063 -16.175782 l -0.179687 -39.480468 c -0.03125 -6.683594 3.5 -12.878906 9.265624 -16.257813 l 36.683594 -21.488281 c 5.769532 -3.378906 12.898438 -3.429688 18.714844 -0.132812 l 37.554688 21.273437 c 5.8125 3.292969 9.414062 9.441406 9.445312 16.121094 l 0.179688 39.480469 c 0.03125 6.675781 -3.515626 12.859374 -9.296876 16.199218 z m 0 0"/>
    </clipPath>
    <linearGradient id="q" gradientUnits="userSpaceOnUse" x1="89.695389" x2="135.552933" y1="80.520081" y2="53.282486">
        <stop offset="0" stop-color="#a51d6f"/>
        <stop offset="1" stop-color="#a51d6f" stop-opacity="0"/>
    </linearGradient>
    <clipPath id="r">
        <path d="m 63 88 h 57 v 36 h -57 z m 0 0"/>
    </clipPath>
    <clipPath id="s">
        <path d="m 110.664062 99.722656 l -37.371093 21.597656 c -5.785157 3.347657 -12.917969 3.355469 -18.714844 0.027344 l -36.867187 -21.164062 c -5.796876 -3.328125 -9.382813 -9.492188 -9.414063 -16.175782 l -0.179687 -39.480468 c -0.03125 -6.683594 3.5 -12.878906 9.265624 -16.257813 l 36.683594 -21.488281 c 5.769532 -3.378906 12.898438 -3.429688 18.714844 -0.132812 l 37.554688 21.273437 c 5.8125 3.292969 9.414062 9.441406 9.445312 16.121094 l 0.179688 39.480469 c 0.03125 6.675781 -3.515626 12.859374 -9.296876 16.199218 z m 0 0"/>
    </clipPath>
    <linearGradient id="t" gradientUnits="userSpaceOnUse" x1="91.977837" x2="75.615379" y1="110.523315" y2="66.554718">
        <stop offset="0" stop-color="#4e1058"/>
        <stop offset="1" stop-color="#4e1058" stop-opacity="0"/>
    </linearGradient>
    <clipPath id="u">
        <path d="m 8 89 h 56 v 35 h -56 z m 0 0"/>
    </clipPath>
    <clipPath id="v">
        <path d="m 110.664062 99.722656 l -37.371093 21.597656 c -5.785157 3.347657 -12.917969 3.355469 -18.714844 0.027344 l -36.867187 -21.164062 c -5.796876 -3.328125 -9.382813 -9.492188 -9.414063 -16.175782 l -0.179687 -39.480468 c -0.03125 -6.683594 3.5 -12.878906 9.265624 -16.257813 l 36.683594 -21.488281 c 5.769532 -3.378906 12.898438 -3.429688 18.714844 -0.132812 l 37.554688 21.273437 c 5.8125 3.292969 9.414062 9.441406 9.445312 16.121094 l 0.179688 39.480469 c 0.03125 6.675781 -3.515626 12.859374 -9.296876 16.199218 z m 0 0"/>
    </clipPath>
    <linearGradient id="w" gradientUnits="userSpaceOnUse" x1="39.615356" x2="74.024391" y1="112.848083" y2="88.061676">
        <stop offset="0" stop-color="#aa14a2"/>
        <stop offset="1" stop-color="#aa14a2" stop-opacity="0"/>
    </linearGradient>
    <clipPath id="x">
        <path d="m 8 33 h 24 v 57 h -24 z m 0 0"/>
    </clipPath>
    <clipPath id="y">
        <path d="m 110.664062 99.722656 l -37.371093 21.597656 c -5.785157 3.347657 -12.917969 3.355469 -18.714844 0.027344 l -36.867187 -21.164062 c -5.796876 -3.328125 -9.382813 -9.492188 -9.414063 -16.175782 l -0.179687 -39.480468 c -0.03125 -6.683594 3.5 -12.878906 9.265624 -16.257813 l 36.683594 -21.488281 c 5.769532 -3.378906 12.898438 -3.429688 18.714844 -0.132812 l 37.554688 21.273437 c 5.8125 3.292969 9.414062 9.441406 9.445312 16.121094 l 0.179688 39.480469 c 0.03125 6.675781 -3.515626 12.859374 -9.296876 16.199218 z m 0 0"/>
    </clipPath>
    <linearGradient id="z" gradientUnits="userSpaceOnUse" x1="12.495266" x2="53.871845" y1="58.246216" y2="61.781754">
        <stop offset="0" stop-color="#ed3391"/>
        <stop offset="1" stop-color="#ed3391" stop-opacity="0"/>
    </linearGradient>
    <clipPath id="A">
        <path d="m 60 4 h 60 v 42 h -60 z m 0 0"/>
    </clipPath>
    <clipPath id="B">
        <path d="m 110.664062 99.722656 l -37.371093 21.597656 c -5.785157 3.347657 -12.917969 3.355469 -18.714844 0.027344 l -36.867187 -21.164062 c -5.796876 -3.328125 -9.382813 -9.492188 -9.414063 -16.175782 l -0.179687 -39.480468 c -0.03125 -6.683594 3.5 -12.878906 9.265624 -16.257813 l 36.683594 -21.488281 c 5.769532 -3.378906 12.898438 -3.429688 18.714844 -0.132812 l 37.554688 21.273437 c 5.8125 3.292969 9.414062 9.441406 9.445312 16.121094 l 0.179688 39.480469 c 0.03125 6.675781 -3.515626 12.859374 -9.296876 16.199218 z m 0 0"/>
    </clipPath>
    <linearGradient id="C" gradientUnits="userSpaceOnUse" x1="91.348503" x2="99.311317" y1="12.495239" y2="51.964447">
        <stop offset="0" stop-color="#f54054"/>
        <stop offset="1" stop-color="#f54054" stop-opacity="0"/>
    </linearGradient>
    <clipPath id="D">
        <path d="m 55 88 h 18 v 16 h -18 z m 0 0"/>
    </clipPath>
    <clipPath id="E">
        <path d="m 110.664062 99.722656 l -37.371093 21.597656 c -5.785157 3.347657 -12.917969 3.355469 -18.714844 0.027344 l -36.867187 -21.164062 c -5.796876 -3.328125 -9.382813 -9.492188 -9.414063 -16.175782 l -0.179687 -39.480468 c -0.03125 -6.683594 3.5 -12.878906 9.265624 -16.257813 l 36.683594 -21.488281 c 5.769532 -3.378906 12.898438 -3.429688 18.714844 -0.132812 l 37.554688 21.273437 c 5.8125 3.292969 9.414062 9.441406 9.445312 16.121094 l 0.179688 39.480469 c 0.03125 6.675781 -3.515626 12.859374 -9.296876 16.199218 z m 0 0"/>
    </clipPath>
    <radialGradient id="F" cx="64.566757" cy="263.572876" gradientTransform="matrix(0 2.037129 -1.537457 0.00000145 469.798889 -39.43222)" gradientUnits="userSpaceOnUse" r="8.894679">
        <stop offset="0" stop-color="#d12c6c"/>
        <stop offset="1" stop-color="#cf275e"/>
    </radialGradient>
    <clipPath id="G">
        <path d="m 115 83 h 5 v 11 h -5 z m 0 0"/>
    </clipPath>
    <clipPath id="H">
        <path d="m 110.664062 99.722656 l -37.371093 21.597656 c -5.785157 3.347657 -12.917969 3.355469 -18.714844 0.027344 l -36.867187 -21.164062 c -5.796876 -3.328125 -9.382813 -9.492188 -9.414063 -16.175782 l -0.179687 -39.480468 c -0.03125 -6.683594 3.5 -12.878906 9.265624 -16.257813 l 36.683594 -21.488281 c 5.769532 -3.378906 12.898438 -3.429688 18.714844 -0.132812 l 37.554688 21.273437 c 5.8125 3.292969 9.414062 9.441406 9.445312 16.121094 l 0.179688 39.480469 c 0.03125 6.675781 -3.515626 12.859374 -9.296876 16.199218 z m 0 0"/>
    </clipPath>
    <linearGradient id="I" gradientUnits="userSpaceOnUse" x1="120.422241" x2="115.193672" y1="88.061676" y2="85.042969">
        <stop offset="0" stop-color="#e73f4b"/>
        <stop offset="1" stop-color="#c11c6b"/>
    </linearGradient>
    <clipPath id="J">
        <path d="m 86 39 h 18 v 16 h -18 z m 0 0"/>
    </clipPath>
    <clipPath id="K">
        <path d="m 110.664062 99.722656 l -37.371093 21.597656 c -5.785157 3.347657 -12.917969 3.355469 -18.714844 0.027344 l -36.867187 -21.164062 c -5.796876 -3.328125 -9.382813 -9.492188 -9.414063 -16.175782 l -0.179687 -39.480468 c -0.03125 -6.683594 3.5 -12.878906 9.265624 -16.257813 l 36.683594 -21.488281 c 5.769532 -3.378906 12.898438 -3.429688 18.714844 -0.132812 l 37.554688 21.273437 c 5.8125 3.292969 9.414062 9.441406 9.445312 16.121094 l 0.179688 39.480469 c 0.03125 6.675781 -3.515626 12.859374 -9.296876 16.199218 z m 0 0"/>
    </clipPath>
    <clipPath id="L">
        <path d="m 24 39 h 16 v 16 h -16 z m 0 0"/>
    </clipPath>
    <clipPath id="M">
        <path d="m 110.664062 99.722656 l -37.371093 21.597656 c -5.785157 3.347657 -12.917969 3.355469 -18.714844 0.027344 l -36.867187 -21.164062 c -5.796876 -3.328125 -9.382813 -9.492188 -9.414063 -16.175782 l -0.179687 -39.480468 c -0.03125 -6.683594 3.5 -12.878906 9.265624 -16.257813 l 36.683594 -21.488281 c 5.769532 -3.378906 12.898438 -3.429688 18.714844 -0.132812 l 37.554688 21.273437 c 5.8125 3.292969 9.414062 9.441406 9.445312 16.121094 l 0.179688 39.480469 c 0.03125 6.675781 -3.515626 12.859374 -9.296876 16.199218 z m 0 0"/>
    </clipPath>
    <clipPath id="N">
        <path d="m 57 4 h 14 v 5 h -14 z m 0 0"/>
    </clipPath>
    <clipPath id="O">
        <path d="m 110.664062 99.722656 l -37.371093 21.597656 c -5.785157 3.347657 -12.917969 3.355469 -18.714844 0.027344 l -36.867187 -21.164062 c -5.796876 -3.328125 -9.382813 -9.492188 -9.414063 -16.175782 l -0.179687 -39.480468 c -0.03125 -6.683594 3.5 -12.878906 9.265624 -16.257813 l 36.683594 -21.488281 c 5.769532 -3.378906 12.898438 -3.429688 18.714844 -0.132812 l 37.554688 21.273437 c 5.8125 3.292969 9.414062 9.441406 9.445312 16.121094 l 0.179688 39.480469 c 0.03125 6.675781 -3.515626 12.859374 -9.296876 16.199218 z m 0 0"/>
    </clipPath>
    <clipPath id="P">
        <path d="m 8 29 h 8 v 12 h -8 z m 0 0"/>
    </clipPath>
    <clipPath id="Q">
        <path d="m 110.664062 99.722656 l -37.371093 21.597656 c -5.785157 3.347657 -12.917969 3.355469 -18.714844 0.027344 l -36.867187 -21.164062 c -5.796876 -3.328125 -9.382813 -9.492188 -9.414063 -16.175782 l -0.179687 -39.480468 c -0.03125 -6.683594 3.5 -12.878906 9.265624 -16.257813 l 36.683594 -21.488281 c 5.769532 -3.378906 12.898438 -3.429688 18.714844 -0.132812 l 37.554688 21.273437 c 5.8125 3.292969 9.414062 9.441406 9.445312 16.121094 l 0.179688 39.480469 c 0.03125 6.675781 -3.515626 12.859374 -9.296876 16.199218 z m 0 0"/>
    </clipPath>
    <clipPath id="R">
        <path d="m 114 32 h 6 v 11 h -6 z m 0 0"/>
    </clipPath>
    <clipPath id="S">
        <path d="m 110.664062 99.722656 l -37.371093 21.597656 c -5.785157 3.347657 -12.917969 3.355469 -18.714844 0.027344 l -36.867187 -21.164062 c -5.796876 -3.328125 -9.382813 -9.492188 -9.414063 -16.175782 l -0.179687 -39.480468 c -0.03125 -6.683594 3.5 -12.878906 9.265624 -16.257813 l 36.683594 -21.488281 c 5.769532 -3.378906 12.898438 -3.429688 18.714844 -0.132812 l 37.554688 21.273437 c 5.8125 3.292969 9.414062 9.441406 9.445312 16.121094 l 0.179688 39.480469 c 0.03125 6.675781 -3.515626 12.859374 -9.296876 16.199218 z m 0 0"/>
    </clipPath>
    <linearGradient id="T" gradientUnits="userSpaceOnUse" x1="115.744293" x2="118.39534" y1="38.437927" y2="36.383606">
        <stop offset="0" stop-color="#f75753"/>
        <stop offset="1" stop-color="#fa9292"/>
    </linearGradient>
    <clipPath id="U">
        <path d="m 8 85 h 6 v 10 h -6 z m 0 0"/>
    </clipPath>
    <clipPath id="V">
        <path d="m 110.664062 99.722656 l -37.371093 21.597656 c -5.785157 3.347657 -12.917969 3.355469 -18.714844 0.027344 l -36.867187 -21.164062 c -5.796876 -3.328125 -9.382813 -9.492188 -9.414063 -16.175782 l -0.179687 -39.480468 c -0.03125 -6.683594 3.5 -12.878906 9.265624 -16.257813 l 36.683594 -21.488281 c 5.769532 -3.378906 12.898438 -3.429688 18.714844 -0.132812 l 37.554688 21.273437 c 5.8125 3.292969 9.414062 9.441406 9.445312 16.121094 l 0.179688 39.480469 c 0.03125 6.675781 -3.515626 12.859374 -9.296876 16.199218 z m 0 0"/>
    </clipPath>
    <clipPath id="W">
        <path d="m 58 120 h 13 v 4 h -13 z m 0 0"/>
    </clipPath>
    <clipPath id="X">
        <path d="m 110.664062 99.722656 l -37.371093 21.597656 c -5.785157 3.347657 -12.917969 3.355469 -18.714844 0.027344 l -36.867187 -21.164062 c -5.796876 -3.328125 -9.382813 -9.492188 -9.414063 -16.175782 l -0.179687 -39.480468 c -0.03125 -6.683594 3.5 -12.878906 9.265624 -16.257813 l 36.683594 -21.488281 c 5.769532 -3.378906 12.898438 -3.429688 18.714844 -0.132812 l 37.554688 21.273437 c 5.8125 3.292969 9.414062 9.441406 9.445312 16.121094 l 0.179688 39.480469 c 0.03125 6.675781 -3.515626 12.859374 -9.296876 16.199218 z m 0 0"/>
    </clipPath>
    <g clip-path="url(#a)">
        <g clip-path="url(#b)">
            <path d="m 120.011719 94.320312 l -56.066407 32.40625 l -55.597656 -31.921874 l -0.28125 -61.074219 l 55.316406 -32.40625 l 56.347657 31.921875 z m 0 0" fill="url(#c)"/>
        </g>
    </g>
    <g clip-path="url(#d)">
        <g clip-path="url(#e)">
            <path d="m 64 4.496094 l -32.25 41.628906 l 64 -0.25 z m 0 0" fill="url(#f)"/>
        </g>
    </g>
    <g clip-path="url(#g)">
        <g clip-path="url(#h)">
            <path d="m 31.75 46.125 l 64 -0.25 l -32 50 z m 0 0" fill="#ed3376"/>
        </g>
    </g>
    <g clip-path="url(#i)">
        <g clip-path="url(#j)">
            <path d="m 63.75 95.875 l -32 -49.75 l -23.425781 43.621094 z m 0 0" fill="url(#k)"/>
        </g>
    </g>
    <g clip-path="url(#l)">
        <g clip-path="url(#m)">
            <path d="m 95.75 45.875 l 24.671875 42.1875 l -56.671875 7.8125 z m 0 0" fill="url(#n)"/>
        </g>
    </g>
    <g clip-path="url(#o)">
        <g clip-path="url(#p)">
            <path d="m 95.75 45.875 l 23.996094 -9.492188 l 0.675781 51.679688 z m 0 0" fill="url(#q)"/>
        </g>
    </g>
    <g clip-path="url(#r)">
        <g clip-path="url(#s)">
            <path d="m 63.75 95.875 l 0.195312 30.851562 l 56.066407 -32.40625 l 0.410156 -6.257812 z m 0 0" fill="url(#t)"/>
        </g>
    </g>
    <g clip-path="url(#u)">
        <g clip-path="url(#v)">
            <path d="m 63.75 95.875 l 0.195312 30.851562 l -63.945312 -36.476562 l 8.324219 -0.503906 z m 0 0" fill="url(#w)"/>
        </g>
    </g>
    <g clip-path="url(#x)">
        <g clip-path="url(#y)">
            <path d="m 31.75 46.125 l -23.425781 43.621094 l -0.257813 -56.015625 z m 0 0" fill="url(#z)"/>
        </g>
    </g>
    <g clip-path="url(#A)">
        <g clip-path="url(#B)">
            <path d="m 95.75 45.875 l -34.984375 -45.875 l 63.640625 34.382812 z m 0 0" fill="url(#C)"/>
        </g>
    </g>
    <g clip-path="url(#D)">
        <g clip-path="url(#E)">
            <path d="m 58.480469 88.0625 c 0.992187 2.632812 -0.125 5.429688 -3.308594 6.777344 c 7.601563 0.941406 7.035156 5.511718 8.386719 8.832031 c 0.941406 -5.285156 3.640625 -8.308594 9.402344 -9.09375 c -4.601563 0.058594 -5.757813 -2.007813 -4.898438 -5.808594 c -3.019531 2.953125 -6.683594 2.125 -9.582031 -0.707031 z m 0 0" fill="url(#F)"/>
        </g>
    </g>
    <g clip-path="url(#G)">
        <g clip-path="url(#H)">
            <path d="m 117.707031 83.414062 c 0.5625 1.5 -0.703125 4.601563 -2.511719 5.367188 c 4.320313 0.535156 2.824219 3.105469 1.957032 4.660156 c 3.003906 -1.324218 4.921875 -5.550781 8.195312 -5.996094 c -2.617187 0.03125 -5.46875 -1.300781 -4.980468 -3.460937 c -0.511719 1.601563 -1.015626 1.042969 -2.660157 -0.570313 z m 0 0" fill="url(#I)"/>
        </g>
    </g>
    <g clip-path="url(#J)">
        <g clip-path="url(#K)">
            <path d="m 91.039062 39.734375 c 1.074219 2.851563 1.117188 6.15625 -4.71875 6.171875 c 5.078126 0 6.011719 5.308594 4.433594 7.777344 c 2.621094 -2.09375 5.777344 -3.769532 9.75 0.320312 c -2.246094 -3.84375 -2.347656 -9.082031 3.410156 -11.359375 c -7.285156 2.882813 -9.738281 0.15625 -12.875 -2.910156 z m 0 0" fill="#f63d43"/>
        </g>
    </g>
    <g clip-path="url(#L)">
        <g clip-path="url(#M)">
            <path d="m 36.5625 39.914062 c -1.8125 3.886719 0.347656 6.191407 3.394531 6.179688 c -4.65625 0.015625 -5.164062 4.523438 -3.253906 7.492188 c -2.035156 -2.378907 -7.269531 -3.152344 -9.277344 0.589843 c 2.550781 -4.75 1.160157 -8.507812 -3.28125 -12.03125 c 4.738281 2.480469 9.246094 1.859375 12.417969 -2.230469 z m 0 0" fill="#de4e49"/>
        </g>
    </g>
    <g clip-path="url(#N)">
        <g clip-path="url(#O)">
            <path d="m 57.945312 5.066406 c 2.34375 -0.460937 4.589844 0.125 3.113282 3.226563 c 2.023437 -1.953125 3.882812 -2.074219 5.578125 -0.363281 c -0.515625 -0.910157 0.132812 -3.371094 3.726562 -2.433594 l -2.425781 -5.496094 z m 0 0" fill="#fa9292"/>
        </g>
    </g>
    <g clip-path="url(#P)">
        <g clip-path="url(#Q)">
            <path d="m 15.242188 29.890625 c -2.207032 1.894531 -2.539063 5.214844 -0.191407 7.492187 c -2.800781 -0.5625 -5.503906 -0.125 -6.554687 2.867188 c 1.144531 -4.125 -2.191406 -9.742188 6.746094 -10.359375 z m 0 0" fill="#f76f6a"/>
        </g>
    </g>
    <g clip-path="url(#R)">
        <g clip-path="url(#S)">
            <path d="m 115.503906 32.375 c 1.5625 2.070312 1.132813 3.886719 -1.210937 6.167969 c 2.796875 -0.5625 5.210937 0.980469 5.480469 3.972656 c 0.800781 -4.347656 4.671874 -9.519531 -4.269532 -10.140625 z m 0 0" fill="url(#T)"/>
        </g>
    </g>
    <g clip-path="url(#U)">
        <g clip-path="url(#V)">
            <path d="m 10.792969 85.148438 c -1.285157 3.125 0.464843 4.738281 2.648437 5.164062 c -4.648437 -0.3125 -2.824218 3.105469 -1.957031 4.65625 c -3.003906 -1.320312 -4.921875 -5.550781 -8.195313 -5.996094 c 2.617188 0.03125 5.46875 -1.300781 4.980469 -3.460937 c 0.675781 1.601562 1.878907 1.246093 2.523438 -0.363281 z m 0 0" fill="#cd18c3"/>
        </g>
    </g>
    <g clip-path="url(#W)">
        <g clip-path="url(#X)">
            <path d="m 58 122.882812 c 2.347656 0.457032 5.304688 0.265626 5.902344 -2.707031 c 0.65625 2.617188 2.867187 3.558594 6.460937 2.621094 l -2.425781 5.496094 z m 0 0" fill="#430d21"/>
        </g>
    </g>
</svg>
