<?xml version="1.0" encoding="UTF-8" standalone="no"?>
<!-- Created with Inkscape (http://www.inkscape.org/) -->

<svg
   width="43.358864mm"
   height="45.232471mm"
   viewBox="0 0 43.358864 45.232471"
   version="1.1"
   id="svg1"
   xml:space="preserve"
   xmlns="http://www.w3.org/2000/svg"
   xmlns:svg="http://www.w3.org/2000/svg"><defs
     id="defs1" /><g
     id="layer1"
     transform="translate(-113.62752,-73.634208)"><g
       id="g95"
       transform="translate(58.111116,-43.954992)"><path
         style="fill:#c2d58f;fill-opacity:1;stroke:none;stroke-width:1.8;stroke-dasharray:none;stroke-opacity:1"
         d="M 77.079729,117.5892 55.516403,146.21472 77.03565,162.82167 98.875266,146.12445 Z"
         id="path94" /><path
         d="m 68.1541,153.31151 c -4.42219,-3.42931 -8.44965,-6.56183 -8.94992,-6.96116 l -0.90958,-0.72604 8.42911,-11.09665 c 4.63601,-6.10316 8.70649,-11.43322 9.04552,-11.84456 l 0.61641,-0.74791 v 18.80572 c 0,10.34314 -0.043,18.80572 -0.0956,18.80572 -0.0526,0 -3.71376,-2.80581 -8.13594,-6.23512 z m 10.08362,-12.54099 c 0,-10.3371 0.039,-18.79473 0.0866,-18.79473 0.20914,0 17.77275,23.32166 17.77275,23.59936 0,0.26925 -16.16114,13.02036 -17.39636,13.7257 -0.43911,0.25074 -0.46302,-0.70626 -0.46302,-18.53033 z"
         style="fill:#040303"
         id="path1-6" /></g></g></svg>
