<?xml version="1.0" encoding="UTF-8" standalone="no"?>
<!-- Created with Inkscape (http://www.inkscape.org/) -->

<svg
   width="39.289131mm"
   height="45.36718mm"
   viewBox="0 0 39.289131 45.36718"
   version="1.1"
   id="svg1"
   xml:space="preserve"
   xmlns="http://www.w3.org/2000/svg"
   xmlns:svg="http://www.w3.org/2000/svg"><defs
     id="defs1" /><g
     id="layer1"
     transform="translate(-77.195835,-12.68193)"><g
       id="g93"
       transform="translate(18.174004,-57.80343)"><path
         style="fill:#cfad6c;fill-opacity:1;stroke:none;stroke-width:1.8;stroke-dasharray:none;stroke-opacity:1"
         id="path89"
         d="m -73.755271,68.31579 -15.844491,9.147822 -15.844488,-9.147822 0,-18.295643 15.844488,-9.147821 15.844492,9.147821 z"
         transform="matrix(1.2398356,0,0,1.2398356,189.75537,19.810395)" /><g
         id="g92"><path
           d="m 71.890034,108.28271 c -3.15259,-1.82992 -5.712429,-3.34211 -5.688549,-3.36041 0.0239,-0.0183 2.60327,0.40485 5.731969,0.94035 l 5.688543,0.97364 0.0806,1.24246 c 0.0444,0.68335 0.0444,1.7574 0,2.38677 l -0.0806,1.14433 z m 7.716343,1.04889 c 0,-2.2504 0.0328,-2.38955 0.59531,-2.52663 0.86834,-0.21159 10.903473,-1.91672 10.972783,-1.86444 0.0501,0.0378 -1.8625,1.1592 -10.300813,6.03968 l -1.26728,0.73296 z m -10.318752,-5.76356 c -3.71078,-0.65439 -6.79033,-1.22882 -6.84345,-1.27652 -0.1317,-0.11827 5.087339,-13.342533 5.26588,-13.342923 0.0782,-1.7e-4 2.183399,3.57156 4.67817,7.93719 3.210402,5.617923 4.405952,7.927933 4.091112,7.904783 -0.24466,-0.018 -3.480932,-0.56813 -7.191712,-1.22253 z m 11.411882,1.03417 c 0.21821,-0.61975 8.840293,-15.637963 8.982283,-15.645633 0.1779,-0.01 5.27042,12.727413 5.27042,13.181993 0,0.16691 -0.10832,0.30347 -0.24071,0.30347 -0.27278,0 -12.184103,2.03182 -13.350533,2.27732 -0.47625,0.10024 -0.72264,0.0566 -0.66146,-0.11715 z m -6.60333,-8.429613 c -2.483302,-4.34474 -4.593862,-8.1048 -4.690132,-8.35568 -0.16368,-0.42653 0.43644,-0.45613 9.245982,-0.45613 5.30988,0 9.421023,0.10249 9.421023,0.23487 0,0.25708 -8.897743,15.900453 -9.246613,16.256743 -0.11835,0.12086 -2.24696,-3.33505 -4.73026,-7.679803 z m -12.216892,-4.93126 c 0,-3.73503 0.0497,-6.79097 0.11043,-6.79097 0.0935,0 4.13696,2.33649 4.31676,2.49441 0.0708,0.0622 -4.15991,10.81037 -4.32087,10.97729 -0.0585,0.0606 -0.10632,-2.94569 -0.10632,-6.68073 z m 31.320535,1.17126 -2.14927,-5.44869 2.14927,-1.25848 2.14927,-1.25848 0.0739,3.45691 c 0.0407,1.9013 0.0407,4.91953 0,6.70717 l -0.0739,3.25026 z m -23.383036,-7.05684 c 0,-0.14837 7.567973,-9.54488 8.470603,-10.51723 0.42943,-0.4626 0.54649,-0.36442 2.68169,2.24896 1.22796,1.50297 3.27866,4.01259 4.55711,5.57694 l 2.324443,2.84427 h -9.016923 c -4.9593,0 -9.016922,-0.0688 -9.016923,-0.15294 z m -4.84154,-1.34627 c -1.134879,-0.66496 -2.02785,-1.23985 -1.98438,-1.27753 0.0435,-0.0377 2.579361,-1.46632 5.6353,-3.17474 3.05594,-1.70842 5.663943,-3.17022 5.795573,-3.24846 0.45254,-0.26896 -0.20849,0.60251 -3.616753,4.76817 -1.87522,2.29196 -3.48978,4.16143 -3.58791,4.15439 -0.0981,-0.007 -1.10695,-0.55687 -2.24183,-1.22183 z m 21.750013,-2.77309 c -1.80533,-2.21796 -3.44674,-4.26012 -3.64758,-4.53812 -0.34383,-0.47594 -0.32837,-0.48596 0.26458,-0.17162 1.18051,0.62583 10.948173,6.1161 11.035113,6.20269 0.0895,0.0891 -3.33599,2.14304 -3.99728,2.3968 -0.24508,0.094 -1.49464,-1.23582 -3.654833,-3.88975 z"
           style="fill:#000000;fill-opacity:1;stroke:none;stroke-opacity:1"
           id="path1-9" /></g></g></g></svg>
