<?xml version="1.0" encoding="UTF-8" standalone="no"?>
<!-- Created with Inkscape (http://www.inkscape.org/) -->

<svg
   width="44.317707mm"
   height="45.634918mm"
   viewBox="0 0 44.317707 45.634918"
   version="1.1"
   id="svg1"
   xml:space="preserve"
   xmlns="http://www.w3.org/2000/svg"
   xmlns:svg="http://www.w3.org/2000/svg"><defs
     id="defs1" /><g
     id="layer1"
     transform="translate(-20.613424,-13.048442)"><g
       id="g91"
       transform="translate(-14.387753,-94.908688)"><path
         style="fill:#bd4948;fill-opacity:1;stroke:none;stroke-width:1.8;stroke-dasharray:none;stroke-opacity:1"
         d="m 57.350964,107.95713 c 0.141478,0.11169 21.967921,24.48314 21.967921,24.48314 l -21.98542,21.15178 -22.332288,-21.29328 z"
         id="path90" /><path
         d="m 53.985027,147.69567 c -1.16416,-1.12364 -4.2595,-4.0652 -6.87853,-6.5368 -7.480721,-7.05961 -8.599591,-8.14329 -8.599591,-8.32914 0,-0.0957 1.847071,-0.69199 4.104611,-1.32504 l 4.10461,-1.151 4.56049,1.80409 c 2.50828,0.99224 4.65163,1.88431 4.76301,1.98236 0.11138,0.0981 0.17091,3.64784 0.13229,7.88841 l -0.0702,7.71012 z m 4.10105,-5.66397 v -7.81079 l 4.618269,-1.88678 c 2.54005,-1.03772 4.76424,-1.88677 4.94265,-1.88677 0.64214,0 8.16616,2.21775 8.16616,2.40703 0,0.15713 -7.45733,7.31509 -16.205729,15.55515 l -1.52135,1.43295 z m -5.42396,-11.23243 c -2.32834,-0.96316 -4.28782,-1.79842 -4.35441,-1.85614 -0.14628,-0.12678 2.47484,-5.31922 8.57237,-16.98189 0.30894,-0.5909 0.4429,-0.40169 2.34156,3.30729 1.107639,2.16372 3.135539,6.07716 4.506469,8.69654 1.37092,2.61937 2.41847,4.84492 2.32788,4.94566 -0.19421,0.21597 -8.636299,3.65644 -8.947699,3.64652 -0.11706,-0.004 -2.11784,-0.79482 -4.44617,-1.75798 z m -12.67486,-0.93936 c 1.64489,-1.91716 12.34663,-13.71125 12.56223,-13.8445 0.26457,-0.16351 -5.37968,10.94152 -6.10508,12.01173 -0.2854,0.42106 -1.25149,0.84241 -3.43958,1.50012 -1.67349,0.50304 -3.150461,0.91584 -3.282161,0.91735 -0.13169,0.002 -0.0126,-0.2616 0.264591,-0.5847 z m 31.225499,-0.35122 c -1.58434,-0.48414 -2.96869,-0.97702 -3.07635,-1.09527 -0.10765,-0.11826 -1.47881,-2.71533 -3.04702,-5.77127 -1.56822,-3.05594 -2.93358,-5.67531 -3.03415,-5.82083 -0.10057,-0.14552 -0.2673,-0.50271 -0.37051,-0.79375 -0.22827,-0.64367 -1.03728,-1.49818 6.81222,7.19532 3.44183,3.81191 6.25788,6.99683 6.25788,7.0776 0,0.24592 -0.54446,0.12421 -3.54207,-0.7918 z"
         style="fill:#040303"
         id="path1-4" /></g></g></svg>
