<?xml version="1.0" encoding="UTF-8" standalone="no"?>
<!-- Created with Inkscape (http://www.inkscape.org/) -->

<svg
   width="39.289131mm"
   height="45.36718mm"
   viewBox="0 0 39.289131 45.36718"
   version="1.1"
   id="svg1"
   xml:space="preserve"
   xmlns="http://www.w3.org/2000/svg"
   xmlns:svg="http://www.w3.org/2000/svg"><defs
     id="defs1" /><path
     style="fill:#006400;fill-opacity:1;stroke:none;stroke-width:2.2317;stroke-dasharray:none;stroke-opacity:1"
     id="path89-3"
     d="M 39.289129,34.025383 19.644565,45.367179 5.0347e-6,34.025383 V 11.341794 L 19.644565,-1.703944e-7 39.289131,11.341794 Z" /><path
     d="m 9.926405,38.193978 -8.39058,-4.81417 -0.01,-9.723437 c -0.005,-5.34788 0.0249,-9.723429 0.0675,-9.723429 0.0426,0 3.88235,2.178649 8.53281,4.841439 l 8.45539,4.84142 0.0694,9.710647 c 0.0382,5.34086 -0.0214,9.70414 -0.13229,9.69618 -0.11094,-0.008 -3.97746,-2.18086 -8.59227,-4.82865 z m 10.70241,-4.8501 0.0694,-9.693207 6.87917,-3.95487 c 3.78354,-2.17519 7.6233,-4.371929 8.53281,-4.881639 l 1.65364,-0.92676 -0.005,9.746199 -0.005,9.746207 -8.43639,4.82864 c -4.64001,2.65576 -8.50878,4.82865 -8.59726,4.82865 -0.0885,0 -0.12963,-4.36195 -0.0915,-9.69322 z m -9.4035,-16.110837 c -4.62802,-2.661249 -8.41763,-4.938949 -8.42136,-5.061539 -0.004,-0.1226 1.58016,-1.16325 3.51978,-2.31254 1.93961,-1.149297 5.7225,-3.393788 8.40641,-4.987748 l 4.87983,-2.89811 0.80871,0.46328 c 0.44479,0.2548 4.35165,2.55362 8.68192,5.10847 6.37123,3.759028 7.78453,4.693228 7.40833,4.896928 -0.25568,0.13845 -4.09628,2.33245 -8.53467,4.875559 -4.43839,2.54309 -8.12932,4.65318 -8.20208,4.68907 -0.0728,0.0359 -3.91885,-2.11212 -8.54687,-4.77337 z"
     style="fill:#040303"
     id="path1-7" /><rect
     style="fill:#006400;fill-opacity:1;stroke:#000000;stroke-width:0;stroke-linejoin:round"
     id="rect1-72"
     width="10.627317"
     height="1.5161474"
     x="5.1604376"
     y="-24.448801"
     transform="matrix(0.89544447,0.44517322,-0.01931981,-0.99981336,0,0)" /><rect
     style="fill:#006400;fill-opacity:1;stroke:#000000;stroke-width:0;stroke-linejoin:round"
     id="rect1"
     width="10.627317"
     height="1.5161474"
     x="29.168707"
     y="42.949802"
     transform="matrix(0.89544447,-0.44517322,-0.01931981,0.99981336,0,0)" /><rect
     style="fill:#006400;fill-opacity:1;stroke:#000000;stroke-width:0;stroke-linejoin:round"
     id="rect1-72-0"
     width="10.627317"
     height="1.5161474"
     x="38.727077"
     y="33.049686"
     transform="matrix(0.00197559,0.99999805,0.88576146,-0.46414075,0,0)" /></svg>
