<?xml version="1.0" encoding="UTF-8" standalone="no"?>
<!-- Created with Inkscape (http://www.inkscape.org/) -->

<svg
   width="42.593025mm"
   height="41.01041mm"
   viewBox="0 0 42.593025 41.01041"
   version="1.1"
   id="svg1"
   xml:space="preserve"
   xmlns="http://www.w3.org/2000/svg"
   xmlns:svg="http://www.w3.org/2000/svg"><defs
     id="defs1" /><g
     id="layer1"
     transform="translate(-64.931132,-73.634208)"><g
       id="g96"
       transform="translate(10.738988,-38.307692)"><path
         id="path95"
         style="baseline-shift:baseline;display:inline;overflow:visible;vector-effect:none;fill:#b8c7cb;fill-opacity:1;stroke-width:0.859713;enable-background:accumulate;stop-color:#000000;stop-opacity:1"
         d="m 89.84932,148.7205 -7.03292,4.23181 H 68.22584 l -6.993415,-4.16051 -7.029881,-12.11132 -0.0104,-7.9375 7.630419,-12.90216 7.313647,-3.87772 12.57951,-0.0212 7.43368,3.83434 7.63577,12.81132 v 8.14109 z" /><path
         d="m 67.663162,145.47333 c -0.90951,-3.09077 -1.65326,-5.73826 -1.65278,-5.88332 6.7e-4,-0.20075 8.32661,-5.4897 9.28811,-5.90015 0.14728,-0.0629 5.8362,3.28872 9.12892,5.37825 0.55738,0.35371 0.55496,0.36641 -1.17702,6.19327 l -1.73555,5.83884 -6.09902,-0.004 -6.09902,-0.004 z m -2.94897,3.14185 -2.22136,-1.35142 -3.14674,-5.46267 -3.14675,-5.46268 0.0764,-2.4475 0.0764,-2.4475 3.77534,3.98074 3.77534,3.98074 1.57242,5.24036 c 0.86483,2.8822 1.54717,5.25859 1.51632,5.28086 -0.0309,0.0223 -1.0557,-0.56765 -2.27744,-1.31093 z m 19.14186,1.11754 c 0.0657,-0.19376 0.66759,-2.19776 1.33759,-4.45333 0.67001,-2.25558 1.34671,-4.50871 1.50378,-5.00697 0.26401,-0.83746 1.1108,-1.81008 6.33017,-7.27083 l 1.75038,-1.83132 -0.01,2.4905 -0.01,2.49049 -3.18759,5.5305 c -2.9458,5.11098 -3.28855,5.594 -4.51864,6.36768 -2.82797,1.7787 -3.31531,2.03538 -3.19598,1.68328 z m -2.73483,-14.85449 -4.79296,-2.91217 v -5.75203 -5.75203 l 5.60674,-1.38257 c 3.52258,-0.86864 5.73589,-1.29656 5.95415,-1.15119 0.51119,0.34047 6.46385,10.46041 6.37457,10.83723 -0.0418,0.17665 -1.93761,2.27952 -4.21282,4.67305 l -4.13673,4.35188 z m -20.52486,-1.66363 c -2.56887,-2.71972 -4.09405,-4.53327 -4.00582,-4.76321 0.47441,-1.23629 6.35798,-10.68865 6.6531,-10.68865 0.19728,0 2.53742,0.53441 5.2003,1.18758 2.66289,0.65317 5.1095,1.25075 5.43692,1.32796 0.59491,0.14028 0.59532,0.1443 0.59532,5.91997 v 5.77959 l -4.6016,2.81432 c -2.53087,1.54788 -4.72047,2.81433 -4.86575,2.81433 -0.14529,0 -2.1309,-1.97635 -4.41247,-4.39189 z m 9.84492,-15.68123 c -2.72851,-0.65446 -4.96094,-1.26077 -4.96094,-1.34735 0,-0.0866 1.01378,-0.66022 2.25285,-1.27473 l 2.25285,-1.1173 h 5.46605 5.46606 l 2.20177,1.12448 c 1.21098,0.61846 2.20232,1.19034 2.20298,1.27084 0.001,0.13674 -1.72046,0.5862 -7.53943,1.96836 l -2.38125,0.56561 z"
         style="fill:#040303"
         id="path1-74" /></g></g></svg>
