<?xml version="1.0" encoding="UTF-8" standalone="no"?>
<!-- Created with Inkscape (http://www.inkscape.org/) -->

<svg
   width="45.321617mm"
   height="45.282673mm"
   viewBox="0 0 45.321617 45.282673"
   version="1.1"
   id="svg1"
   xml:space="preserve"
   xmlns="http://www.w3.org/2000/svg"
   xmlns:svg="http://www.w3.org/2000/svg"><defs
     id="defs1" /><g
     id="layer1"
     transform="translate(-6.960726,-58.080864)"><g
       id="g94"
       transform="translate(-44.621394,-21.889624)"><path
         style="fill:#5dabbd;fill-opacity:1;stroke:none;stroke-width:1.8;stroke-dasharray:none;stroke-opacity:1"
         d="m 74.36696,79.970488 -22.78484,22.747992 22.857209,22.53468 22.46441,-22.48279 z"
         id="path93" /><path
         d="m 65.39372,113.77829 c -4.29194,-4.29879 -7.55538,-7.72183 -7.2521,-7.60677 0.30329,0.11507 3.84372,1.75703 7.86764,3.6488 l 7.31621,3.43958 0.004,4.16719 c 0.002,2.29195 -0.0268,4.16719 -0.0641,4.16719 -0.0373,0 -3.57942,-3.5172 -7.87136,-7.81599 z m 9.80012,3.6488 0.009,-4.16719 6.50123,-3.04271 c 3.57568,-1.67349 7.11381,-3.31488 7.86251,-3.64755 1.26111,-0.56034 0.78714,-0.0299 -6.44226,7.2099 -4.29194,4.2981 -7.83405,7.81474 -7.87136,7.81474 -0.0373,0 -0.0638,-1.87524 -0.059,-4.16719 z m -11.33187,-10.58889 -9.33864,-4.39929 9.33864,-9.341645 9.33864,-9.34164 0.0705,6.88079 c 0.0388,3.78443 0.0388,9.967845 0,13.740935 l -0.0705,6.86015 z m 11.32302,-9.395155 v -13.81368 l 9.38877,9.38598 9.38877,9.385975 -0.72367,0.38132 c -0.94752,0.49926 -15.47301,7.34976 -16.92939,7.98421 l -1.12448,0.48987 z"
         style="fill:#040303"
         id="path1-1" /></g></g></svg>
